<?xml version="1.0" encoding="utf-8"?>
<!-- Generator: Adobe Illustrator 23.0.1, SVG Export Plug-In . SVG Version: 6.00 Build 0)  -->
<svg version="1.1" id="Layer_1" xmlns="http://www.w3.org/2000/svg" xmlns:xlink="http://www.w3.org/1999/xlink" x="0px" y="0px"
	 viewBox="0 0 52.70575 19.63658" style="enable-background:new 0 0 52.70575 19.63658;" xml:space="preserve">
<g>
	<path d="M4.5459,2.63495v4.67725c0,0.34375,0.00781,0.73584,0.03223,0.99951H3.94629L3.91406,7.63983H3.89844
		C3.68262,8.07196,3.21094,8.3996,2.5791,8.3996c-0.93555,0-1.65527-0.7915-1.65527-1.9668
		c-0.00781-1.28711,0.7915-2.0791,1.73535-2.0791c0.59131,0,0.99121,0.28027,1.16699,0.5918h0.01611V2.63495H4.5459z
		 M3.84229,6.01678c0-0.08789-0.00781-0.20752-0.03174-0.2959c-0.104-0.44727-0.48779-0.81543-1.01563-0.81543
		c-0.72754,0-1.15918,0.63965-1.15918,1.49512c0,0.78369,0.38379,1.43164,1.14307,1.43164
		c0.47168,0,0.90381-0.31201,1.03174-0.83984c0.02393-0.0957,0.03174-0.19189,0.03174-0.30371V6.01678z"/>
	<path d="M4.77197,9.43085C5.0918,9.40692,5.37158,9.31903,5.53955,9.13544C5.73145,8.91131,5.80371,8.6076,5.80371,7.67987V4.44159
		h0.70313v3.51025c0,0.75146-0.11963,1.23926-0.46338,1.59131C5.73145,9.85467,5.21973,9.9826,4.84375,9.9826L4.77197,9.43085z
		 M6.58691,3.35467c0.0083,0.23145-0.15967,0.43164-0.43945,0.43164c-0.26416,0-0.43213-0.2002-0.43213-0.43164
		c0-0.24805,0.18408-0.43994,0.44775-0.43994C6.41895,2.91473,6.58691,3.10663,6.58691,3.35467z"/>
	<path d="M9.80273,8.31171L9.74658,7.82391H9.72266C9.50684,8.12762,9.09082,8.3996,8.53955,8.3996
		c-0.78369,0-1.18359-0.55176-1.18359-1.11133c0-0.93555,0.83154-1.44727,2.32666-1.43945V5.76923
		c0-0.31982-0.08789-0.89551-0.87939-0.89551c-0.35986,0-0.73584,0.11182-1.00732,0.2876L7.63574,4.69745
		C7.95557,4.48993,8.41943,4.3537,8.90723,4.3537c1.18311,0,1.47119,0.80762,1.47119,1.5835v1.44678
		c0,0.33594,0.01611,0.66406,0.06396,0.92773H9.80273z M9.69873,6.33661C8.93115,6.32098,8.05957,6.45673,8.05957,7.20819
		c0,0.45605,0.30371,0.67188,0.66357,0.67188c0.50391,0,0.82373-0.31982,0.93555-0.64795
		c0.02393-0.07178,0.04004-0.15186,0.04004-0.22363V6.33661z"/>
	<path d="M11.51563,5.48944c0-0.3999-0.00781-0.72754-0.03174-1.04785h0.62354l0.04004,0.63965h0.01611
		c0.19189-0.36768,0.63965-0.72754,1.2793-0.72754c0.53564,0,1.36719,0.31982,1.36719,1.64746v2.31055h-0.70361V6.08075
		c0-0.62354-0.23193-1.14307-0.89551-1.14307c-0.46387,0-0.82373,0.32764-0.94336,0.71973
		c-0.03223,0.08789-0.04834,0.20752-0.04834,0.32764v2.32666h-0.70361V5.48944z"/>
	<path d="M19.29004,4.44159c-0.0166,0.28027-0.03223,0.5918-0.03223,1.06348v2.24707c0,0.88721-0.17578,1.43115-0.55176,1.76709
		c-0.37598,0.35156-0.91943,0.46338-1.40723,0.46338c-0.46338,0-0.9751-0.11182-1.28711-0.31982l0.17578-0.53564
		c0.25586,0.16016,0.65576,0.30371,1.13574,0.30371c0.71973,0,1.24707-0.37549,1.24707-1.35107V7.64813h-0.01563
		c-0.21582,0.35986-0.63184,0.64746-1.23145,0.64746c-0.95996,0-1.64746-0.81543-1.64746-1.88672
		c0-1.31152,0.85547-2.05518,1.74316-2.05518c0.67188,0,1.03906,0.35205,1.20703,0.67188h0.0166l0.03125-0.58398H19.29004z
		 M18.5625,5.96893c0-0.12012-0.00781-0.22363-0.04004-0.31982c-0.12793-0.40771-0.47168-0.74365-0.9834-0.74365
		c-0.67188,0-1.15137,0.56787-1.15137,1.46338c0,0.75928,0.38379,1.39111,1.14307,1.39111c0.43213,0,0.82373-0.27197,0.9751-0.71973
		c0.04004-0.11963,0.05664-0.25586,0.05664-0.37549V5.96893z"/>
	<path d="M23.92969,6.34491c0,1.43115-0.99121,2.05469-1.92676,2.05469c-1.04785,0-1.85547-0.76758-1.85547-1.99072
		c0-1.29541,0.84766-2.05518,1.91895-2.05518C23.17773,4.3537,23.92969,5.16131,23.92969,6.34491z M20.85938,6.38495
		c0,0.84717,0.4873,1.48682,1.1748,1.48682c0.67188,0,1.17578-0.63135,1.17578-1.50293c0-0.65576-0.32813-1.4873-1.15918-1.4873
		C21.21875,4.88153,20.85938,5.64911,20.85938,6.38495z"/>
	<path d="M24.82031,5.48944c0-0.3999-0.00781-0.72754-0.03223-1.04785h0.62402l0.03906,0.63965h0.0166
		c0.19141-0.36768,0.63965-0.72754,1.2793-0.72754c0.53516,0,1.36719,0.31982,1.36719,1.64746v2.31055h-0.7041V6.08075
		c0-0.62354-0.23145-1.14307-0.89551-1.14307c-0.46289,0-0.82324,0.32764-0.94336,0.71973
		c-0.03125,0.08789-0.04785,0.20752-0.04785,0.32764v2.32666h-0.70313V5.48944z"/>
	<path d="M32.76172,6.34491c0,1.43115-0.99121,2.05469-1.92676,2.05469c-1.04785,0-1.85547-0.76758-1.85547-1.99072
		c0-1.29541,0.84766-2.05518,1.91895-2.05518C32.00977,4.3537,32.76172,5.16131,32.76172,6.34491z M29.69141,6.38495
		c0,0.84717,0.4873,1.48682,1.1748,1.48682c0.67188,0,1.17578-0.63135,1.17578-1.50293c0-0.65576-0.32813-1.4873-1.15918-1.4873
		C30.05078,4.88153,29.69141,5.64911,29.69141,6.38495z"/>
	<path d="M34.49902,3.33026v1.11133h1.00684v0.53613h-1.00684v2.08691c0,0.47949,0.13574,0.75146,0.52734,0.75146
		c0.18359,0,0.31934-0.02393,0.40723-0.04834l0.03223,0.52783c-0.13574,0.05615-0.35156,0.09619-0.62305,0.09619
		c-0.32813,0-0.5918-0.104-0.75977-0.2959c-0.2002-0.20801-0.27246-0.55176-0.27246-1.00732V4.97772h-0.59961V4.44159h0.59961
		V3.51434L34.49902,3.33026z"/>
	<path d="M36.64355,6.50458c0.01563,0.95166,0.62402,1.34326,1.32715,1.34326c0.50391,0,0.80762-0.08789,1.07129-0.19971
		l0.12012,0.50342c-0.24805,0.1123-0.67188,0.24023-1.28711,0.24023c-1.19141,0-1.90332-0.78369-1.90332-1.95117
		c0-1.16699,0.6875-2.08691,1.81543-2.08691c1.2627,0,1.59863,1.11133,1.59863,1.82324c0,0.14404-0.01563,0.25586-0.02344,0.32764
		H36.64355z M38.70605,6.00116c0.00781-0.44775-0.18359-1.14355-0.97559-1.14355c-0.71094,0-1.02344,0.65576-1.0791,1.14355
		H38.70605z"/>
	<path d="M40.16309,7.59198c0.20801,0.13623,0.57617,0.27979,0.92773,0.27979c0.51172,0,0.75195-0.25586,0.75195-0.57568
		c0-0.33545-0.2002-0.51953-0.71973-0.71143c-0.69531-0.24805-1.02344-0.63184-1.02344-1.09521
		c0-0.62402,0.50391-1.13574,1.33496-1.13574c0.3916,0,0.73535,0.1123,0.95215,0.24023l-0.17676,0.51172
		c-0.15137-0.09619-0.43164-0.22412-0.79102-0.22412c-0.41602,0-0.64746,0.23975-0.64746,0.52783
		c0,0.31982,0.23145,0.46387,0.73535,0.65576c0.67188,0.25586,1.01563,0.59131,1.01563,1.16699
		c0,0.67969-0.52832,1.15967-1.44727,1.15967c-0.42383,0-0.81543-0.104-1.08789-0.26416L40.16309,7.59198z"/>
	<path d="M46.76953,2.63495v4.67725c0,0.34375,0.00781,0.73584,0.03223,0.99951h-0.63184L46.1377,7.63983h-0.01563
		c-0.21582,0.43213-0.6875,0.75977-1.31934,0.75977c-0.93555,0-1.65527-0.7915-1.65527-1.9668
		c-0.00781-1.28711,0.79199-2.0791,1.73535-2.0791c0.5918,0,0.99121,0.28027,1.16699,0.5918h0.0166V2.63495H46.76953z
		 M46.06641,6.01678c0-0.08789-0.00879-0.20752-0.03223-0.2959c-0.10449-0.44727-0.48828-0.81543-1.01563-0.81543
		c-0.72754,0-1.15918,0.63965-1.15918,1.49512c0,0.78369,0.38379,1.43164,1.14355,1.43164
		c0.47168,0,0.90332-0.31201,1.03125-0.83984c0.02344-0.0957,0.03223-0.19189,0.03223-0.30371V6.01678z"/>
	<path d="M47.90723,8.31171c0.01563-0.26367,0.03223-0.65576,0.03223-0.99951V2.63495h0.69531v2.43066h0.01563
		c0.24805-0.43164,0.69629-0.71191,1.31934-0.71191c0.95996,0,1.63965,0.7998,1.63184,1.9751
		c0,1.3833-0.87207,2.0708-1.73535,2.0708c-0.55957,0-1.00781-0.21582-1.2959-0.72754h-0.02344l-0.03223,0.63965H47.90723z
		 M48.63477,6.76044c0,0.08789,0.01563,0.17627,0.03223,0.25586c0.13574,0.48779,0.54395,0.82373,1.05566,0.82373
		c0.73535,0,1.1748-0.59961,1.1748-1.4873c0-0.77539-0.39941-1.43896-1.15137-1.43896c-0.47949,0-0.92773,0.32764-1.07129,0.86328
		c-0.01563,0.08008-0.04004,0.17578-0.04004,0.28809V6.76044z"/>
</g>
<g>
	<path style="fill:#9D7CC0;" d="M7.375,11.86151h0.52734v1.81104h0.01221c0.08398-0.1499,0.21582-0.28174,0.37793-0.37158
		c0.15576-0.08984,0.3418-0.1499,0.53955-0.1499c0.38965,0,1.01318,0.23975,1.01318,1.24121v1.72705H9.31787v-1.66699
		c0-0.46777-0.17432-0.86377-0.67188-0.86377c-0.3418,0-0.61182,0.24023-0.70752,0.52783
		c-0.02979,0.07178-0.03613,0.1499-0.03613,0.25195v1.75098H7.375V11.86151z"/>
	<path style="fill:#9D7CC0;" d="M10.99854,14.76385c0.01221,0.71387,0.46777,1.00781,0.99561,1.00781
		c0.37793,0,0.60547-0.06592,0.80371-0.1499l0.08984,0.37744c-0.18604,0.08398-0.50391,0.18017-0.96533,0.18017
		c-0.89355,0-1.42725-0.58789-1.42725-1.46338s0.51563-1.56494,1.36133-1.56494c0.94727,0,1.19922,0.8335,1.19922,1.36719
		c0,0.10791-0.01221,0.19189-0.01807,0.24561H10.99854z M12.5459,14.38641c0.00586-0.33594-0.13818-0.85742-0.73145-0.85742
		c-0.53369,0-0.76758,0.4917-0.80957,0.85742H12.5459z"/>
	<path style="fill:#9D7CC0;" d="M13.71094,14.12225c0-0.3418-0.00635-0.63525-0.02441-0.90527h0.46191l0.01807,0.56982h0.02393
		c0.13184-0.39014,0.44971-0.63574,0.80371-0.63574c0.06006,0,0.10156,0.00586,0.1499,0.01807v0.49756
		c-0.0542-0.01221-0.10791-0.01807-0.18018-0.01807c-0.37158,0-0.63574,0.28174-0.70752,0.67773
		c-0.01172,0.07178-0.02393,0.15576-0.02393,0.24561v1.54736h-0.52148V14.12225z"/>
	<path style="fill:#9D7CC0;" d="M18.23926,14.64423c0,1.07324-0.74365,1.54101-1.44531,1.54101
		c-0.78564,0-1.39111-0.57568-1.39111-1.49316c0-0.97168,0.63525-1.54102,1.43896-1.54102
		C17.67529,13.15106,18.23926,13.75653,18.23926,14.64423z M15.93652,14.67401c0,0.63574,0.36572,1.11572,0.88135,1.11572
		c0.50391,0,0.88135-0.47412,0.88135-1.12744c0-0.4917-0.24561-1.11572-0.86914-1.11572
		C16.20605,13.54657,15.93652,14.12225,15.93652,14.67401z"/>
	<path style="fill:#9D7CC0;" d="M19.42822,14.54803h0.01221c0.07178-0.10156,0.17383-0.22754,0.25781-0.32959l0.85156-1.00146
		h0.63525l-1.12109,1.19336l1.27734,1.70898h-0.6416l-1.00146-1.39111l-0.27002,0.2998v1.09131h-0.52148v-4.25781h0.52148V14.54803z
		"/>
	<path style="fill:#9D7CC0;" d="M24.17285,15.32782c0,0.2998,0.00635,0.56348,0.02441,0.7915h-0.46777l-0.03027-0.47363H23.6875
		c-0.13818,0.23389-0.44385,0.53955-0.95947,0.53955c-0.45605,0-1.00146-0.25195-1.00146-1.27148v-1.69678h0.52734v1.60693
		c0,0.55176,0.16797,0.92383,0.64795,0.92383c0.35352,0,0.59961-0.24609,0.69531-0.47998
		c0.03027-0.07813,0.04834-0.17383,0.04834-0.27002v-1.78076h0.52734V15.32782z"/>
	<path style="fill:#9D7CC0;" d="M26.65723,16.11932l-0.04199-0.36572h-0.01758c-0.16211,0.22803-0.47363,0.43164-0.8877,0.43164
		c-0.58789,0-0.88721-0.41357-0.88721-0.8335c0-0.70166,0.62354-1.08545,1.74463-1.07959v-0.05957
		c0-0.24023-0.06543-0.67188-0.65918-0.67188c-0.26953,0-0.55176,0.08398-0.75586,0.21582l-0.11963-0.34766
		c0.23975-0.15576,0.5874-0.25781,0.95361-0.25781c0.8877,0,1.10352,0.60547,1.10352,1.18701v1.08545
		c0,0.25195,0.01172,0.49805,0.04785,0.6958H26.65723z M26.58008,14.63837c-0.57617-0.01221-1.22949,0.08984-1.22949,0.65332
		c0,0.3418,0.22754,0.50391,0.49707,0.50391c0.37793,0,0.61816-0.23975,0.70215-0.48584
		c0.01758-0.0542,0.03027-0.11377,0.03027-0.16797V14.63837z"/>
	<path style="fill:#9D7CC0;" d="M27.94238,14.16424c0-0.37158-0.01172-0.67139-0.02344-0.94727h0.47363l0.02344,0.49756h0.0127
		c0.21582-0.35352,0.55762-0.56348,1.03125-0.56348c0.70117,0,1.22949,0.59375,1.22949,1.4751
		c0,1.04346-0.63574,1.55908-1.31934,1.55908c-0.38379,0-0.71973-0.16797-0.89355-0.45557h-0.0127v1.57715h-0.52148V14.16424z
		 M28.46387,14.93817c0,0.07764,0.0127,0.1499,0.02441,0.21582c0.0957,0.36572,0.41406,0.61768,0.79199,0.61768
		c0.55762,0,0.88086-0.45605,0.88086-1.12158c0-0.58154-0.30566-1.07959-0.86328-1.07959c-0.35938,0-0.69531,0.2583-0.79785,0.65381
		c-0.01758,0.06592-0.03613,0.14404-0.03613,0.21582V14.93817z"/>
	<path style="fill:#9D7CC0;" d="M31.35645,14.16424c0-0.37158-0.01172-0.67139-0.02344-0.94727h0.47363l0.02344,0.49756h0.0127
		c0.21582-0.35352,0.55762-0.56348,1.03125-0.56348c0.70117,0,1.22949,0.59375,1.22949,1.4751
		c0,1.04346-0.63574,1.55908-1.31934,1.55908c-0.38379,0-0.71973-0.16797-0.89355-0.45557h-0.0127v1.57715h-0.52148V14.16424z
		 M31.87793,14.93817c0,0.07764,0.0127,0.1499,0.02441,0.21582c0.0957,0.36572,0.41406,0.61768,0.79199,0.61768
		c0.55762,0,0.88086-0.45605,0.88086-1.12158c0-0.58154-0.30566-1.07959-0.86328-1.07959c-0.35938,0-0.69531,0.2583-0.79785,0.65381
		c-0.01758,0.06592-0.03613,0.14404-0.03613,0.21582V14.93817z"/>
	<path style="fill:#9D7CC0;" d="M34.5,15.80731c0-0.22168,0.15039-0.37744,0.36035-0.37744s0.35352,0.15576,0.35352,0.37744
		c0,0.21582-0.1377,0.37793-0.35938,0.37793C34.64453,16.18524,34.5,16.02313,34.5,15.80731z"/>
	<path style="fill:#9D7CC0;" d="M37.9375,16.01141c-0.1377,0.07178-0.44434,0.16797-0.83398,0.16797
		c-0.875,0-1.44531-0.59375-1.44531-1.48144c0-0.89355,0.6123-1.54102,1.55957-1.54102c0.31152,0,0.58789,0.07813,0.73145,0.1499
		l-0.12012,0.40771c-0.12598-0.07178-0.32324-0.1377-0.61133-0.1377c-0.66602,0-1.02539,0.4917-1.02539,1.09717
		c0,0.67188,0.43164,1.08545,1.00684,1.08545c0.30078,0,0.49805-0.07813,0.64844-0.14404L37.9375,16.01141z"/>
	<path style="fill:#9D7CC0;" d="M41.14746,14.64423c0,1.07324-0.74414,1.54101-1.44531,1.54101
		c-0.78516,0-1.3916-0.57568-1.3916-1.49316c0-0.97168,0.63574-1.54102,1.43945-1.54102
		C40.58398,13.15106,41.14746,13.75653,41.14746,14.64423z M38.84473,14.67401c0,0.63574,0.36523,1.11572,0.88184,1.11572
		c0.50293,0,0.88086-0.47412,0.88086-1.12744c0-0.4917-0.24609-1.11572-0.86914-1.11572
		C39.11426,13.54657,38.84473,14.12225,38.84473,14.67401z"/>
	<path style="fill:#9D7CC0;" d="M41.81445,14.00262c0-0.2998-0.00586-0.5459-0.02344-0.78564h0.46191l0.02344,0.46777h0.01855
		c0.16113-0.27588,0.43164-0.53369,0.91113-0.53369c0.39551,0,0.69531,0.23975,0.82129,0.58154h0.01172
		c0.09082-0.16211,0.2041-0.2876,0.32422-0.37793c0.17383-0.13184,0.36621-0.20361,0.6416-0.20361
		c0.38379,0,0.95313,0.25195,0.95313,1.25928v1.70898h-0.51563v-1.64307c0-0.55762-0.20313-0.89355-0.62891-0.89355
		c-0.2998,0-0.53418,0.22168-0.62402,0.47998c-0.02441,0.07178-0.04199,0.16748-0.04199,0.26367v1.79297h-0.51563v-1.73926
		c0-0.46143-0.2041-0.79736-0.60547-0.79736c-0.33008,0-0.57031,0.26367-0.6543,0.52783
		c-0.0293,0.07764-0.04199,0.16797-0.04199,0.25781v1.75098h-0.51563V14.00262z"/>
</g>
<rect x="0.61988" y="3.51687" width="23.38408" height="5.74273"/>
<rect x="42.87294" y="3.51687" width="9.18837" height="5.74273"/>
<g>
</g>
<g>
</g>
<g>
</g>
<g>
</g>
<g>
</g>
</svg>
