<?xml version="1.0" encoding="utf-8"?>
<!-- Generator: Adobe Illustrator 23.0.1, SVG Export Plug-In . SVG Version: 6.00 Build 0)  -->
<svg version="1.1" id="Layer_1" xmlns="http://www.w3.org/2000/svg" xmlns:xlink="http://www.w3.org/1999/xlink" x="0px" y="0px"
	 viewBox="0 0 52.70575 19.63658" style="enable-background:new 0 0 52.70575 19.63658;" xml:space="preserve">
<g>
	<path style="fill:#4BA000;" d="M4.40088,6.53729c0,0.27197,0.00244,0.51855,0.00781,0.73975
		C4.41406,7.49872,4.43799,7.716,4.48096,7.92938H4.04883L3.88867,7.36151H3.85693C3.75,7.54803,3.5957,7.70282,3.39307,7.82538
		c-0.20313,0.12256-0.43994,0.18408-0.7124,0.18408c-0.5332,0-0.9292-0.16797-1.18799-0.50439
		c-0.2583-0.33594-0.3877-0.86084-0.3877-1.57568c0-0.68262,0.16113-1.20117,0.48389-1.55615
		c0.32275-0.35449,0.7666-0.53174,1.33203-0.53174c0.19727,0,0.35303,0.01074,0.46777,0.03174
		c0.11475,0.02148,0.23877,0.05615,0.37207,0.104V2.31317h0.64014V6.53729z M2.78467,7.4494
		c0.27246,0,0.48828-0.0708,0.64844-0.21191c0.15967-0.1416,0.26904-0.35645,0.32764-0.64404V4.60907
		C3.66504,4.53485,3.55566,4.48114,3.43311,4.4494C3.31006,4.41717,3.14746,4.40106,2.94482,4.40106
		c-0.36816,0-0.65576,0.12158-0.86377,0.36426S1.76904,5.39618,1.76904,5.92938c0,0.21875,0.01709,0.42139,0.05176,0.60791
		s0.09229,0.34668,0.17188,0.47998c0.08008,0.1333,0.18555,0.23877,0.31641,0.31592C2.43945,7.41083,2.59814,7.4494,2.78467,7.4494z
		"/>
	<path style="fill:#4BA000;" d="M5.76074,3.91327h0.63965v4.21582c0,0.49609-0.08496,0.8667-0.25586,1.1123
		c-0.1709,0.24512-0.44287,0.36768-0.81592,0.36768c-0.04297,0-0.08252-0.00098-0.12012-0.00391
		C5.17139,9.60272,5.13135,9.59833,5.08838,9.59344V9.0495c0.14941,0,0.26807-0.02295,0.35645-0.06836
		c0.08789-0.04541,0.15576-0.11572,0.20361-0.21191c0.04834-0.09619,0.07861-0.21729,0.09229-0.36377
		c0.01318-0.14697,0.02002-0.31885,0.02002-0.51611V3.91327z M5.62451,2.69745c0-0.12305,0.0415-0.22803,0.12402-0.31641
		c0.08252-0.08789,0.18799-0.13184,0.31592-0.13184s0.2373,0.04395,0.32813,0.13184C6.4834,2.46942,6.52881,2.5744,6.52881,2.69745
		c0,0.12256-0.04541,0.22363-0.13623,0.30371s-0.2002,0.12012-0.32813,0.12012s-0.2334-0.04004-0.31592-0.12012
		S5.62451,2.82001,5.62451,2.69745z"/>
	<path style="fill:#4BA000;" d="M7.70459,4.20917C7.90723,4.08661,8.14355,3.99579,8.4126,3.93719
		C8.68213,3.8786,8.96338,3.8493,9.25684,3.8493c0.27734,0,0.5,0.03711,0.66797,0.11182
		c0.16797,0.07471,0.2959,0.17236,0.38379,0.29199c0.08838,0.12012,0.14697,0.25195,0.17627,0.396s0.04395,0.28809,0.04395,0.43213
		c0,0.31982-0.00781,0.63184-0.02393,0.93604s-0.02393,0.5918-0.02393,0.86377c0,0.19775,0.00781,0.38428,0.02393,0.56006
		c0.01611,0.17627,0.04541,0.33887,0.08789,0.48828h-0.47217L9.95264,7.36932H9.9126
		C9.86475,7.44403,9.80469,7.51727,9.73291,7.58905C9.66064,7.66131,9.57422,7.72528,9.47266,7.78143
		C9.37158,7.8371,9.25391,7.88397,9.12061,7.92108c-0.1333,0.0376-0.28516,0.05615-0.45557,0.05615
		c-0.1709,0-0.32959-0.02686-0.47607-0.08008C8.04199,7.84393,7.91553,7.76825,7.80859,7.66913
		C7.70215,7.57049,7.61816,7.45184,7.55664,7.31317c-0.06104-0.13867-0.0918-0.2959-0.0918-0.47168
		c0-0.23486,0.04785-0.43066,0.14404-0.58838c0.0957-0.15723,0.23047-0.28223,0.40381-0.37598
		c0.17334-0.09326,0.38135-0.15967,0.62402-0.19971s0.51074-0.06006,0.8042-0.06006c0.07471,0,0.14795,0,0.21973,0
		c0.07227,0,0.14551,0.00537,0.22021,0.01611c0.01611-0.16016,0.02393-0.3042,0.02393-0.43213
		c0-0.29346-0.05859-0.49854-0.17578-0.61621C9.61133,4.46796,9.39795,4.40936,9.08887,4.40936
		c-0.09082,0-0.18799,0.00684-0.29199,0.02051S8.58594,4.46258,8.47705,4.48749c-0.10938,0.0249-0.21338,0.05469-0.31201,0.09033
		C8.06592,4.61346,7.97949,4.6535,7.90479,4.69745L7.70459,4.20917z M8.84082,7.41717c0.14941,0,0.28271-0.02002,0.3999-0.06006
		s0.21875-0.09033,0.3042-0.15186c0.08496-0.06104,0.15576-0.12939,0.21191-0.2041S9.854,6.85467,9.88086,6.78534V6.12128
		C9.80615,6.1159,9.72998,6.112,9.65283,6.10907C9.57568,6.10663,9.49951,6.10516,9.4248,6.10516
		c-0.16553,0-0.32666,0.00928-0.48389,0.02832c-0.15723,0.01855-0.2959,0.05322-0.41602,0.104
		C8.40479,6.28778,8.30859,6.35712,8.23682,6.44549C8.16504,6.53339,8.12891,6.64423,8.12891,6.77704
		c0,0.18701,0.06641,0.34033,0.19971,0.46045C8.46191,7.35712,8.63281,7.41717,8.84082,7.41717z"/>
	<path style="fill:#4BA000;" d="M14.30469,7.91327V5.63348c0-0.41602-0.06006-0.72949-0.18018-0.94043
		c-0.12012-0.21045-0.33984-0.31592-0.65967-0.31592c-0.2832,0-0.51611,0.07617-0.7002,0.22803
		c-0.18408,0.15234-0.31348,0.34277-0.38818,0.57227v2.73584h-0.63965v-4h0.44775l0.12012,0.48779h0.03174
		c0.12842-0.17041,0.30029-0.31055,0.51611-0.41992c0.21631-0.10889,0.47314-0.16406,0.77197-0.16406
		c0.21875,0,0.41064,0.02539,0.57617,0.07617c0.16504,0.05078,0.30273,0.14014,0.41211,0.26807
		c0.10889,0.12793,0.19189,0.2998,0.24805,0.51611c0.05566,0.21582,0.08398,0.48926,0.08398,0.81982v2.41602H14.30469z"/>
	<path style="fill:#4BA000;" d="M19.17676,8.09735c0,0.51709-0.13672,0.89844-0.41211,1.14404
		c-0.27539,0.24512-0.68164,0.36768-1.22021,0.36768c-0.31982,0-0.57715-0.02002-0.77197-0.05957
		c-0.19482-0.04004-0.36133-0.09229-0.5-0.15625l0.16797-0.54395c0.12256,0.04785,0.25879,0.09326,0.4082,0.13574
		c0.14941,0.04297,0.34375,0.06445,0.58398,0.06445c0.22412,0,0.40674-0.02002,0.54785-0.06006
		c0.1416-0.04004,0.25488-0.10693,0.34082-0.2002c0.08398-0.09326,0.14258-0.21338,0.17578-0.35986
		c0.03125-0.14697,0.04688-0.32129,0.04688-0.52393V7.52118H18.5127c-0.10742,0.15479-0.24219,0.27344-0.4082,0.35596
		c-0.16553,0.08252-0.38135,0.12402-0.64795,0.12402c-0.53857,0-0.93457-0.16797-1.18799-0.50391s-0.37988-0.8584-0.37988-1.56787
		c0-0.68262,0.1626-1.20117,0.48779-1.55615c0.3252-0.35449,0.80518-0.53174,1.43994-0.53174
		c0.30371,0,0.56348,0.02393,0.78027,0.07178s0.4082,0.104,0.58008,0.16797V8.09735z M17.56836,7.4411
		c0.27246,0,0.48535-0.06787,0.63965-0.20361c0.15527-0.13623,0.26465-0.34814,0.32813-0.63623V4.5534
		c-0.21289-0.10156-0.48486-0.15234-0.81543-0.15234c-0.36279,0-0.64795,0.12305-0.85596,0.36816
		c-0.20801,0.24561-0.31201,0.62939-0.31201,1.15186c0,0.22412,0.01855,0.42969,0.05566,0.61621
		c0.0376,0.18652,0.09619,0.34668,0.17627,0.47998s0.18408,0.2373,0.31201,0.31201S17.38184,7.4411,17.56836,7.4411z"/>
	<path style="fill:#4BA000;" d="M20.18457,5.91327c0-0.67725,0.15137-1.1958,0.45215-1.55615
		c0.30176-0.35986,0.73535-0.54004,1.2998-0.54004c0.29883,0,0.55859,0.0498,0.78027,0.14795
		c0.22168,0.09912,0.4043,0.24023,0.54785,0.42432c0.14453,0.18408,0.25098,0.40527,0.32031,0.66406
		s0.10449,0.54541,0.10449,0.85986c0,0.67725-0.15137,1.1958-0.45215,1.55615c-0.30176,0.35986-0.73535,0.54004-1.30078,0.54004
		c-0.29785,0-0.55859-0.0498-0.7793-0.14795c-0.22168-0.09863-0.4043-0.24023-0.54785-0.42432
		c-0.14453-0.18408-0.25098-0.40527-0.32031-0.66406C20.21973,6.51483,20.18457,6.22821,20.18457,5.91327z M20.84863,5.91327
		c0,0.20264,0.02051,0.39746,0.06055,0.58398s0.10254,0.34961,0.1875,0.48779c0.08594,0.13916,0.19727,0.25098,0.33594,0.33643
		c0.13867,0.08496,0.30664,0.12793,0.50391,0.12793c0.72559,0.00537,1.08887-0.50684,1.08887-1.53613
		c0-0.20801-0.02051-0.40527-0.06055-0.5918c-0.04004-0.18701-0.10254-0.34961-0.1875-0.48828
		c-0.08594-0.13867-0.19727-0.24902-0.33594-0.33203c-0.13965-0.08252-0.30762-0.12402-0.50488-0.12402
		C21.21191,4.37225,20.84863,4.88397,20.84863,5.91327z"/>
	<path d="M26.98535,7.91327V5.6413c0-0.3252-0.04688-0.56006-0.14063-0.7041c-0.09277-0.14404-0.25195-0.21582-0.47559-0.21582
		c-0.19727,0-0.36426,0.05713-0.5,0.17188s-0.2334,0.25732-0.29199,0.42822v2.5918h-1.04004v-4h0.82422l0.12012,0.52783h0.03125
		c0.12305-0.17041,0.28516-0.31982,0.48828-0.44775c0.20313-0.12793,0.46387-0.19189,0.78418-0.19189
		c0.19727,0,0.37305,0.02637,0.52832,0.07959c0.1543,0.05371,0.28516,0.1416,0.3916,0.26416
		c0.10645,0.12305,0.18652,0.28955,0.24023,0.5c0.05273,0.21094,0.08008,0.4707,0.08008,0.78027v2.48779H26.98535z"/>
	<path d="M28.7041,5.91327c0-0.67725,0.16602-1.19873,0.49609-1.56396c0.33105-0.36523,0.79492-0.54785,1.39258-0.54785
		c0.31934,0,0.59668,0.05078,0.83203,0.15186c0.23438,0.10156,0.42871,0.24414,0.58398,0.42773
		c0.1543,0.18408,0.27051,0.40674,0.34766,0.66846c0.07715,0.26123,0.11621,0.54932,0.11621,0.86377
		c0,0.67725-0.16406,1.19873-0.49219,1.56396s-0.79102,0.54785-1.3877,0.54785c-0.32031,0-0.59766-0.05078-0.83203-0.15186
		c-0.23535-0.10107-0.43066-0.24414-0.58789-0.42773c-0.1582-0.18408-0.27539-0.40674-0.35254-0.66846
		C28.74316,6.51581,28.7041,6.22821,28.7041,5.91327z M29.77637,5.91327c0,0.17578,0.01563,0.33887,0.04785,0.48779
		c0.03223,0.14941,0.08008,0.28027,0.14453,0.39209c0.06348,0.1123,0.14746,0.19873,0.25195,0.26025
		c0.10352,0.06104,0.22754,0.0918,0.37207,0.0918c0.27148,0,0.47461-0.09863,0.60742-0.2959
		c0.13379-0.19727,0.2002-0.50928,0.2002-0.93604c0-0.36816-0.06152-0.66504-0.18359-0.89209
		c-0.12305-0.22656-0.33105-0.33984-0.62402-0.33984c-0.25586,0-0.45605,0.0957-0.60059,0.28809
		C29.84863,5.16131,29.77637,5.47626,29.77637,5.91327z"/>
	<path d="M32.77637,3.91327h0.55176V3.16131l1.04004-0.2959v1.04785h0.97656v0.87988h-0.97656v1.53613
		c0,0.27734,0.02832,0.47607,0.08398,0.59619c0.05664,0.11963,0.16113,0.17969,0.31641,0.17969
		c0.10645,0,0.19824-0.01074,0.27539-0.03174c0.07715-0.02148,0.16406-0.05322,0.26074-0.09619l0.18359,0.7998
		c-0.14355,0.06982-0.31152,0.12842-0.50391,0.17627s-0.38672,0.07178-0.58398,0.07178c-0.36816,0-0.63867-0.09473-0.8125-0.28369
		c-0.17285-0.18945-0.25977-0.5-0.25977-0.93213V4.79315h-0.55176V3.91327z"/>
	<path d="M39.14453,7.56903c-0.16016,0.12842-0.37793,0.23633-0.65234,0.32422s-0.56641,0.13184-0.87598,0.13184
		c-0.64551,0-1.11719-0.18799-1.41602-0.56396s-0.44824-0.89209-0.44824-1.54785c0-0.7041,0.16797-1.23193,0.50391-1.58398
		s0.80859-0.52783,1.41602-0.52783c0.20313,0,0.40039,0.02637,0.59277,0.07959c0.19141,0.05371,0.3623,0.1416,0.51172,0.26416
		c0.14941,0.12305,0.26953,0.28809,0.36035,0.49609c0.08984,0.20801,0.13574,0.4668,0.13574,0.77588
		c0,0.1123-0.00684,0.23193-0.02051,0.35986c-0.0127,0.12842-0.0332,0.26172-0.05957,0.40039H36.7998
		c0.0166,0.33594,0.10254,0.58936,0.25977,0.75977c0.15625,0.1709,0.41016,0.25586,0.76074,0.25586
		c0.21875,0,0.41406-0.0332,0.58691-0.09961c0.17188-0.06689,0.30371-0.13477,0.39453-0.2041L39.14453,7.56903z M37.66016,4.63348
		c-0.27148,0-0.47168,0.08105-0.60156,0.24365c-0.12988,0.16309-0.20801,0.38037-0.23438,0.65234h1.48047
		c0.02051-0.28809-0.02246-0.50928-0.13184-0.66406C38.06445,4.71063,37.89355,4.63348,37.66016,4.63348z"/>
	<path d="M41.66504,6.80926c0-0.10645-0.0459-0.19189-0.13672-0.25586s-0.20215-0.12256-0.33594-0.17627
		c-0.13281-0.05322-0.2793-0.10791-0.43945-0.16406c-0.16016-0.05566-0.30664-0.13281-0.44043-0.23193
		c-0.13281-0.09863-0.24512-0.22363-0.33594-0.37598c-0.09082-0.15186-0.13574-0.34766-0.13574-0.58789
		c0-0.39453,0.11719-0.6958,0.35156-0.90381c0.23535-0.20801,0.57324-0.31201,1.0166-0.31201
		c0.30371,0,0.57813,0.03174,0.82422,0.0957c0.24512,0.06396,0.43652,0.13623,0.5752,0.21631l-0.23145,0.75195
		c-0.12305-0.04834-0.27734-0.09863-0.46387-0.15234c-0.1875-0.05322-0.37598-0.07959-0.56836-0.07959
		c-0.30957,0-0.46387,0.11963-0.46387,0.35986c0,0.0957,0.04492,0.17334,0.13574,0.23193s0.20313,0.11328,0.33594,0.16406
		c0.13379,0.05078,0.28027,0.10547,0.44043,0.16406s0.30664,0.13477,0.43945,0.22803
		c0.13379,0.09326,0.24512,0.21436,0.33594,0.36377s0.13672,0.34131,0.13672,0.57617c0,0.40527-0.12988,0.72412-0.38867,0.95605
		s-0.64648,0.34766-1.16406,0.34766c-0.28223,0-0.54785-0.03564-0.7959-0.10791c-0.24805-0.07178-0.44922-0.15576-0.60352-0.25195
		l0.28809-0.77588c0.12207,0.06934,0.28516,0.13721,0.4873,0.2041c0.20313,0.06641,0.41113,0.09961,0.62402,0.09961
		c0.15527,0,0.2793-0.02881,0.37207-0.08789C41.61816,7.04657,41.66504,6.94794,41.66504,6.80926z"/>
	<path style="fill:#2CA200;" d="M46.61719,6.53729c0,0.27197,0.00195,0.51855,0.00781,0.73975
		c0.00488,0.22168,0.0293,0.43896,0.07129,0.65234h-0.43164l-0.16016-0.56787h-0.03223
		c-0.10645,0.18652-0.26074,0.34131-0.46387,0.46387c-0.20215,0.12256-0.43945,0.18408-0.71191,0.18408
		c-0.5332,0-0.92871-0.16797-1.1875-0.50439c-0.25879-0.33594-0.38867-0.86084-0.38867-1.57568
		c0-0.68262,0.16211-1.20117,0.48438-1.55615c0.32227-0.35449,0.7666-0.53174,1.33203-0.53174
		c0.19727,0,0.35352,0.01074,0.46777,0.03174c0.11523,0.02148,0.23926,0.05615,0.37207,0.104V2.31317h0.64063V6.53729z
		 M45.00098,7.4494c0.27148,0,0.4873-0.0708,0.64746-0.21191c0.16016-0.1416,0.26953-0.35645,0.32813-0.64404V4.60907
		c-0.0957-0.07422-0.20508-0.12793-0.32813-0.15967c-0.12207-0.03223-0.28516-0.04834-0.4873-0.04834
		c-0.36816,0-0.65625,0.12158-0.86426,0.36426s-0.3125,0.63086-0.3125,1.16406c0,0.21875,0.01758,0.42139,0.05273,0.60791
		c0.03418,0.18652,0.0918,0.34668,0.17188,0.47998s0.18457,0.23877,0.31543,0.31592
		C44.65527,7.41083,44.81348,7.4494,45.00098,7.4494z"/>
	<path style="fill:#2CA200;" d="M47.84863,2.31317h0.63965v1.99219h0.03223c0.12207-0.15479,0.27832-0.2749,0.46777-0.35986
		c0.18945-0.08545,0.39648-0.12842,0.62012-0.12842c0.51758,0,0.90527,0.16553,1.16406,0.49609
		c0.25879,0.33105,0.3877,0.84277,0.3877,1.53613c0,0.69873-0.1709,1.22949-0.51172,1.5918
		c-0.3418,0.36279-0.82129,0.54395-1.44043,0.54395c-0.29785,0-0.56934-0.03174-0.81152-0.0957
		c-0.24316-0.06396-0.42578-0.1333-0.54785-0.20801V2.31317z M49.49609,4.37714c-0.2666,0-0.48242,0.07471-0.64746,0.22412
		c-0.16602,0.14941-0.28516,0.35986-0.36035,0.63184v2.01611c0.10156,0.05859,0.22461,0.10303,0.36816,0.13184
		C49,7.41083,49.14941,7.42548,49.30469,7.42548c0.3623,0,0.65137-0.12842,0.86816-0.38428
		c0.21582-0.25586,0.32324-0.65576,0.32324-1.19971c0-0.20801-0.01855-0.40283-0.05566-0.58398
		c-0.03711-0.18164-0.0957-0.33643-0.17578-0.46436s-0.18262-0.229-0.30859-0.30371
		C49.83105,4.41473,49.67773,4.37714,49.49609,4.37714z"/>
</g>
<g>
	<path style="fill:#9041AA;" d="M9.07959,16.11981v-1.70996c0-0.15625-0.00928-0.29297-0.02734-0.41113
		c-0.01807-0.11768-0.05078-0.21582-0.09863-0.29395c-0.04834-0.07813-0.11328-0.13672-0.19531-0.17676
		s-0.18896-0.06006-0.3208-0.06006c-0.18799,0-0.35791,0.06104-0.51025,0.18262c-0.15186,0.12207-0.25,0.2793-0.29395,0.47119
		v1.99805H7.15332v-4.20019H7.6333v1.53613h0.02393c0.104-0.12402,0.229-0.22266,0.375-0.29688s0.32715-0.11084,0.54297-0.11084
		c0.16797,0,0.31396,0.01904,0.43799,0.05664c0.12402,0.03809,0.22705,0.10498,0.30908,0.20117s0.14209,0.2251,0.18018,0.38721
		c0.03809,0.16162,0.05713,0.3667,0.05713,0.61475v1.81201H9.07959z"/>
	<path style="fill:#9041AA;" d="M12.625,15.87958c-0.11963,0.09619-0.271,0.17236-0.45264,0.22803
		c-0.18213,0.05615-0.375,0.08398-0.5791,0.08398c-0.22803,0-0.42627-0.03662-0.59424-0.11084
		c-0.16797-0.07373-0.30566-0.18017-0.41406-0.31787c-0.10791-0.13818-0.18799-0.30322-0.23975-0.49512
		c-0.05225-0.19189-0.07813-0.40771-0.07813-0.64795c0-0.51221,0.11426-0.90186,0.34229-1.16992
		c0.22754-0.26807,0.55371-0.40186,0.97754-0.40186c0.13623,0,0.27197,0.01465,0.4082,0.04492
		c0.13574,0.02979,0.25781,0.08691,0.36621,0.1709c0.10791,0.08398,0.1958,0.20313,0.26367,0.35693
		c0.06787,0.1543,0.10205,0.35693,0.10205,0.60889c0,0.13232-0.01172,0.27832-0.03613,0.43799h-1.92578
		c0,0.17627,0.01807,0.33203,0.0542,0.46826c0.03564,0.13574,0.0918,0.25098,0.16797,0.34473
		c0.07568,0.09424,0.1748,0.16602,0.29688,0.21631c0.12207,0.0498,0.271,0.07471,0.44678,0.07471
		c0.13623,0,0.27197-0.02393,0.4082-0.07178c0.13574-0.04785,0.23779-0.104,0.30615-0.16797L12.625,15.87958z M11.59326,13.46796
		c-0.23633,0-0.42529,0.06201-0.56689,0.18604c-0.14209,0.12402-0.22705,0.33594-0.25537,0.63574h1.48828
		c0-0.30371-0.05811-0.51709-0.17432-0.63916C11.96924,13.52899,11.80518,13.46796,11.59326,13.46796z"/>
	<path style="fill:#9041AA;" d="M14.89941,13.58173c-0.12012-0.04004-0.23389-0.06006-0.3418-0.06006
		c-0.17236,0-0.30811,0.04736-0.4082,0.14111c-0.1001,0.09424-0.16211,0.21289-0.18604,0.35693v2.1001H13.4834v-3h0.33594
		l0.09033,0.36621h0.02393c0.07568-0.13623,0.16699-0.24121,0.27295-0.31543c0.10596-0.07373,0.24072-0.11084,0.40479-0.11084
		c0.11621,0,0.24609,0.02002,0.39014,0.06006L14.89941,13.58173z"/>
	<path style="fill:#9041AA;" d="M15.35547,14.61981c0-0.50781,0.11279-0.89697,0.33887-1.16699s0.55127-0.40479,0.9751-0.40479
		c0.22412,0,0.41895,0.03662,0.58496,0.11084s0.30322,0.18018,0.41113,0.31787c0.10791,0.13818,0.18799,0.3042,0.24023,0.49805
		c0.05176,0.19385,0.07764,0.40918,0.07764,0.64502c0,0.50781-0.11279,0.89697-0.33887,1.16699
		c-0.22607,0.27002-0.55127,0.40478-0.9751,0.40478c-0.22412,0-0.41895-0.03662-0.58496-0.11084
		c-0.16602-0.07373-0.30273-0.18017-0.41113-0.31787c-0.10791-0.13818-0.18799-0.3042-0.23975-0.49805
		C15.38135,15.07098,15.35547,14.85565,15.35547,14.61981z M15.85352,14.61981c0,0.15186,0.01514,0.29785,0.04492,0.43799
		c0.03027,0.14014,0.07715,0.26221,0.14111,0.36621s0.14795,0.18799,0.25195,0.25195s0.22998,0.0957,0.37793,0.0957
		c0.54395,0.00439,0.81592-0.37988,0.81592-1.15186c0-0.15576-0.01465-0.30371-0.04492-0.44385
		c-0.02979-0.14014-0.07715-0.26221-0.14111-0.36621s-0.14795-0.18701-0.25195-0.24902s-0.22998-0.09277-0.37793-0.09277
		C16.12549,13.46405,15.85352,13.84784,15.85352,14.61981z"/>
	<path style="fill:#9041AA;" d="M19.49512,14.76971h-0.27588v1.3501h-0.47998v-4.20019h0.47998v2.55615l0.24609-0.08398
		l0.93018-1.27197h0.55762l-0.91797,1.20605l-0.24561,0.19775l0.2998,0.24023l1.00195,1.35596h-0.59375L19.49512,14.76971z"/>
	<path style="fill:#9041AA;" d="M22.04541,13.11981v1.70996c0,0.15625,0.00879,0.29297,0.02686,0.41113
		s0.04883,0.21582,0.09326,0.29395c0.04395,0.07813,0.104,0.13721,0.17969,0.17676c0.07617,0.04004,0.17188,0.06006,0.28809,0.06006
		c0.10791,0,0.2041-0.0166,0.28809-0.05078s0.15918-0.08105,0.2251-0.14111s0.12402-0.12891,0.17383-0.20703
		s0.09082-0.16113,0.12305-0.24902v-2.00391h0.47998v2.14795c0,0.14404,0.00488,0.29297,0.01514,0.44727
		c0.00977,0.15381,0.02686,0.28857,0.05078,0.40478h-0.33008l-0.11963-0.47412h-0.03027
		c-0.0918,0.15625-0.21582,0.28613-0.37207,0.39014c-0.15576,0.104-0.354,0.15576-0.59375,0.15576
		c-0.16016,0-0.30127-0.01904-0.42285-0.05664c-0.12207-0.03809-0.22412-0.10498-0.30615-0.20117
		c-0.08203-0.09619-0.14404-0.2251-0.18604-0.38721c-0.04199-0.16162-0.06299-0.3667-0.06299-0.61475v-1.81201H22.04541z"/>
	<path style="fill:#9041AA;" d="M24.79932,13.34198c0.15137-0.09229,0.3291-0.16016,0.53027-0.2041
		c0.20215-0.04395,0.41406-0.06592,0.63379-0.06592c0.2085,0,0.37549,0.02783,0.50146,0.08398s0.22168,0.12891,0.28809,0.21875
		c0.06543,0.09033,0.10938,0.18896,0.13184,0.29688c0.02148,0.1084,0.0332,0.21631,0.0332,0.32422
		c0,0.24023-0.00586,0.47412-0.01855,0.70215c-0.01172,0.22803-0.01758,0.44385-0.01758,0.64795
		c0,0.14795,0.00586,0.28809,0.01758,0.41992c0.0127,0.13184,0.03418,0.25391,0.06641,0.36621h-0.35449l-0.12598-0.42041h-0.0293
		c-0.03613,0.05615-0.08105,0.11133-0.13574,0.16504c-0.05371,0.0542-0.11816,0.10205-0.19434,0.14404
		c-0.07617,0.04199-0.16455,0.07715-0.26514,0.10498c-0.09961,0.02832-0.21387,0.04199-0.3418,0.04199
		s-0.24609-0.02002-0.35742-0.06006c-0.10938-0.03955-0.20508-0.09668-0.28418-0.1709
		c-0.08008-0.07373-0.14307-0.1626-0.18896-0.26709c-0.04639-0.104-0.06934-0.22168-0.06934-0.354
		c0-0.17578,0.03613-0.32275,0.10791-0.44092c0.07227-0.11768,0.17285-0.21191,0.30371-0.28174
		c0.12891-0.07031,0.28516-0.12012,0.46777-0.1499c0.18164-0.03027,0.38281-0.04541,0.60303-0.04541c0.05566,0,0.11133,0,0.16504,0
		s0.10938,0.00439,0.16504,0.01221c0.01172-0.12012,0.01855-0.22803,0.01855-0.32422c0-0.21973-0.04492-0.37402-0.13281-0.46191
		s-0.24805-0.13184-0.47998-0.13184c-0.06836,0-0.1416,0.00488-0.21875,0.01563c-0.07813,0.01025-0.1582,0.02441-0.24023,0.04297
		s-0.16016,0.04102-0.23438,0.06787s-0.13867,0.05664-0.19531,0.08936L24.79932,13.34198z M25.65088,15.74774
		c0.1123,0,0.21191-0.01514,0.30078-0.04492c0.08838-0.02979,0.16357-0.06787,0.22803-0.11377
		c0.06445-0.04639,0.11719-0.09717,0.15918-0.15332c0.04199-0.05566,0.07324-0.10986,0.09277-0.16211v-0.49805
		c-0.05566-0.00391-0.11328-0.00684-0.1709-0.00879s-0.11523-0.00293-0.1709-0.00293c-0.12451,0-0.24561,0.00684-0.36377,0.021
		s-0.22168,0.04004-0.31152,0.07813c-0.09082,0.03809-0.16211,0.08984-0.21582,0.15576
		c-0.05469,0.06592-0.08203,0.14893-0.08203,0.24902c0,0.14014,0.05078,0.25488,0.15039,0.34521
		C25.3667,15.70282,25.49561,15.74774,25.65088,15.74774z"/>
	<path style="fill:#9041AA;" d="M27.82324,13.11981h0.33008l0.08984,0.35986h0.02441c0.0918-0.13965,0.21094-0.24658,0.35645-0.3208
		c0.14648-0.07422,0.31348-0.11084,0.50098-0.11084c0.40039,0,0.69824,0.11768,0.89453,0.354
		c0.19531,0.23584,0.29395,0.62158,0.29395,1.15771c0,0.25195-0.0332,0.479-0.09961,0.68115
		c-0.06543,0.20215-0.1582,0.37305-0.27832,0.5127c-0.12012,0.14014-0.26563,0.24805-0.43555,0.32422
		s-0.3584,0.11377-0.56641,0.11377c-0.14844,0-0.26563-0.00879-0.35156-0.02686s-0.17871-0.04883-0.27832-0.09277v1.24805h-0.48047
		V13.11981z M29.03516,13.46796c-0.2041,0-0.36523,0.05273-0.48242,0.15869c-0.11816,0.10596-0.20117,0.26709-0.24902,0.4834
		v1.48779c0.07129,0.05615,0.15332,0.09912,0.24609,0.12891c0.0918,0.03027,0.21387,0.04492,0.36523,0.04492
		c0.27637,0,0.49512-0.10303,0.65723-0.30908c0.16211-0.20557,0.24316-0.50879,0.24316-0.90869
		c0-0.16406-0.01465-0.31299-0.04199-0.44727c-0.02832-0.13379-0.07324-0.24756-0.13477-0.3418
		c-0.0625-0.09375-0.14258-0.16699-0.24023-0.21924C29.2998,13.49383,29.17969,13.46796,29.03516,13.46796z"/>
	<path style="fill:#9041AA;" d="M31.06934,13.11981h0.33008l0.08984,0.35986h0.02441c0.0918-0.13965,0.21094-0.24658,0.35645-0.3208
		c0.14648-0.07422,0.31348-0.11084,0.50098-0.11084c0.40039,0,0.69824,0.11768,0.89453,0.354
		c0.19531,0.23584,0.29395,0.62158,0.29395,1.15771c0,0.25195-0.0332,0.479-0.09961,0.68115
		c-0.06543,0.20215-0.1582,0.37305-0.27832,0.5127c-0.12012,0.14014-0.26563,0.24805-0.43555,0.32422
		s-0.3584,0.11377-0.56641,0.11377c-0.14844,0-0.26563-0.00879-0.35156-0.02686s-0.17871-0.04883-0.27832-0.09277v1.24805h-0.48047
		V13.11981z M32.28125,13.46796c-0.2041,0-0.36523,0.05273-0.48242,0.15869c-0.11816,0.10596-0.20117,0.26709-0.24902,0.4834
		v1.48779c0.07129,0.05615,0.15332,0.09912,0.24609,0.12891c0.0918,0.03027,0.21387,0.04492,0.36523,0.04492
		c0.27637,0,0.49512-0.10303,0.65723-0.30908c0.16211-0.20557,0.24316-0.50879,0.24316-0.90869
		c0-0.16406-0.01465-0.31299-0.04199-0.44727c-0.02832-0.13379-0.07324-0.24756-0.13477-0.3418
		c-0.0625-0.09375-0.14258-0.16699-0.24023-0.21924C32.5459,13.49383,32.42578,13.46796,32.28125,13.46796z"/>
	<path style="fill:#9041AA;" d="M34.0752,15.84393c0-0.10791,0.03125-0.19287,0.09277-0.25488
		c0.0625-0.06201,0.14551-0.09326,0.24902-0.09326c0.1084,0,0.19434,0.03125,0.25781,0.09326
		c0.06445,0.06201,0.09668,0.14697,0.09668,0.25488c0,0.104-0.03223,0.18799-0.09668,0.25195
		c-0.06348,0.06396-0.14941,0.0957-0.25781,0.0957c-0.10352,0-0.18652-0.03174-0.24902-0.0957
		C34.10645,16.03192,34.0752,15.94794,34.0752,15.84393z"/>
	<path style="fill:#9041AA;" d="M37.57324,15.92157c-0.12012,0.08838-0.26172,0.15527-0.42578,0.20117
		s-0.33594,0.06885-0.51563,0.06885c-0.23242,0-0.42871-0.03662-0.58887-0.11084c-0.15918-0.07373-0.29102-0.18017-0.39258-0.31787
		c-0.10156-0.13818-0.17578-0.3042-0.22168-0.49805s-0.06934-0.40918-0.06934-0.64502c0-0.50781,0.1123-0.89697,0.33594-1.16699
		s0.5459-0.40479,0.96582-0.40479c0.19238,0,0.35547,0.01465,0.48926,0.04492c0.13379,0.02979,0.25488,0.07275,0.36328,0.12891
		L37.375,13.63592c-0.0918-0.05225-0.19336-0.09326-0.30566-0.12305c-0.1123-0.03027-0.23242-0.04492-0.36035-0.04492
		c-0.56738,0-0.85156,0.38379-0.85156,1.15186c0,0.15186,0.01465,0.29688,0.04492,0.43506s0.08008,0.25977,0.15039,0.36572
		c0.06934,0.10645,0.16211,0.19141,0.27539,0.25537c0.11426,0.06396,0.25488,0.0957,0.42285,0.0957
		c0.14453,0,0.27344-0.02197,0.3877-0.06592c0.11328-0.04395,0.20703-0.09375,0.27832-0.1499L37.57324,15.92157z"/>
	<path style="fill:#9041AA;" d="M37.92773,14.61981c0-0.50781,0.11328-0.89697,0.33887-1.16699
		c0.22656-0.27002,0.55078-0.40479,0.97559-0.40479c0.22363,0,0.41895,0.03662,0.58496,0.11084s0.30273,0.18018,0.41016,0.31787
		c0.1084,0.13818,0.18848,0.3042,0.24023,0.49805s0.07813,0.40918,0.07813,0.64502c0,0.50781-0.11328,0.89697-0.33887,1.16699
		c-0.22559,0.27002-0.55078,0.40478-0.97461,0.40478c-0.22461,0-0.41992-0.03662-0.58496-0.11084
		c-0.16602-0.07373-0.30371-0.18017-0.41113-0.31787c-0.1084-0.13818-0.18848-0.3042-0.24023-0.49805
		S37.92773,14.85565,37.92773,14.61981z M38.42578,14.61981c0,0.15186,0.01465,0.29785,0.04492,0.43799
		s0.07715,0.26221,0.14063,0.36621c0.06445,0.104,0.14844,0.18799,0.25293,0.25195c0.10352,0.06396,0.22949,0.0957,0.37793,0.0957
		c0.54395,0.00439,0.81543-0.37988,0.81543-1.15186c0-0.15576-0.01465-0.30371-0.04492-0.44385s-0.07715-0.26221-0.14063-0.36621
		c-0.06445-0.104-0.14844-0.18701-0.25195-0.24902c-0.10449-0.06201-0.23047-0.09277-0.37793-0.09277
		C38.69824,13.46405,38.42578,13.84784,38.42578,14.61981z"/>
	<path style="fill:#9041AA;" d="M43.06934,16.11981v-1.69824c0-0.15967-0.00684-0.29883-0.02051-0.41699
		c-0.01465-0.11768-0.04102-0.2168-0.08105-0.29688s-0.09766-0.13965-0.1709-0.17969
		c-0.07422-0.04004-0.1709-0.06006-0.29102-0.06006c-0.18457,0-0.33691,0.05615-0.45898,0.16797s-0.20703,0.25195-0.25488,0.41992
		v2.06396h-0.48047v-3h0.33594l0.08984,0.36621h0.02441c0.10742-0.12842,0.23242-0.2334,0.375-0.31543
		c0.1416-0.08154,0.32715-0.12256,0.55469-0.12256c0.19238,0,0.34961,0.03662,0.47168,0.11084
		c0.12109,0.07422,0.2168,0.20313,0.28418,0.38672c0.09277-0.15576,0.21973-0.27783,0.38086-0.36572
		c0.16211-0.08789,0.3457-0.13184,0.5498-0.13184c0.16797,0,0.30957,0.01904,0.42578,0.05664
		c0.11621,0.03809,0.21191,0.10498,0.28809,0.20117s0.13086,0.22607,0.16504,0.39014s0.05078,0.37207,0.05078,0.62402v1.7998
		h-0.48047v-1.80615c0-0.14404-0.00684-0.26904-0.02051-0.375s-0.04199-0.19385-0.08398-0.26367
		c-0.04199-0.07031-0.09961-0.12207-0.17383-0.15625c-0.07422-0.03369-0.1709-0.05078-0.29102-0.05078
		c-0.2002,0-0.35645,0.05615-0.46777,0.16797c-0.1123,0.11182-0.19238,0.27197-0.24023,0.47998v2.00391H43.06934z"/>
</g>
<g>
</g>
<g>
</g>
<g>
</g>
<g>
</g>
<g>
</g>
</svg>
