<?xml version="1.0" encoding="utf-8"?>
<!-- Generator: Adobe Illustrator 23.0.1, SVG Export Plug-In . SVG Version: 6.00 Build 0)  -->
<svg version="1.1" id="Layer_1" xmlns="http://www.w3.org/2000/svg" xmlns:xlink="http://www.w3.org/1999/xlink" x="0px" y="0px"
	 viewBox="0 0 14.18523 12.89566" style="enable-background:new 0 0 14.18523 12.89566;" xml:space="preserve">
<g>
	<path style="stroke:#FFFFFF;stroke-width:0.25;stroke-miterlimit:10;" d="M2.03025,9.69275
		c0-0.44385,0.2998-0.75586,0.71973-0.75586S3.4575,9.24891,3.4575,9.69275c0,0.43164-0.27588,0.75537-0.71973,0.75537
		C2.31834,10.44813,2.03025,10.1244,2.03025,9.69275z"/>
	<path style="stroke:#FFFFFF;stroke-width:0.25;stroke-miterlimit:10;" d="M4.80223,10.31629v-8.0835h1.13916l2.59082,4.08984
		C9.1323,7.2699,9.60008,8.12147,9.98387,8.9491L10.0073,8.9369c-0.0957-1.0791-0.12012-2.0625-0.12012-3.32178V2.23279h0.9834
		v8.0835H9.8159L7.249,6.21473C6.68504,5.31482,6.14549,4.39148,5.73777,3.516L5.70164,3.5282
		C5.7617,4.54725,5.78562,5.51893,5.78562,6.86219v3.4541H4.80223z"/>
</g>
<g>
</g>
<g>
</g>
<g>
</g>
<g>
</g>
<g>
</g>
</svg>
