<?xml version="1.0" encoding="utf-8"?>
<!-- Generator: Adobe Illustrator 23.0.1, SVG Export Plug-In . SVG Version: 6.00 Build 0)  -->
<svg version="1.1" id="Layer_1" xmlns="http://www.w3.org/2000/svg" xmlns:xlink="http://www.w3.org/1999/xlink" x="0px" y="0px"
	 viewBox="0 0 52.70575 19.63658" style="enable-background:new 0 0 52.70575 19.63658;" xml:space="preserve">
<g>
	<path d="M10.65625,8.34491c0-0.44385,0.2998-0.75586,0.71973-0.75586s0.70752,0.31201,0.70752,0.75586
		c0,0.43164-0.27588,0.75537-0.71973,0.75537C10.94434,9.10028,10.65625,8.77655,10.65625,8.34491z"/>
	<path d="M13.39209,4.73456c0-0.59961-0.01172-1.09131-0.04785-1.5708h0.93555l0.05957,0.95947h0.02441
		c0.2876-0.55176,0.95947-1.09131,1.91895-1.09131c0.80322,0,2.05078,0.47949,2.05078,2.47022v3.46631h-1.05566V5.62225
		c0-0.93555-0.34766-1.71484-1.34326-1.71484c-0.69531,0-1.23535,0.4917-1.41504,1.0791
		c-0.04785,0.13184-0.07178,0.31201-0.07178,0.4917v3.49023h-1.05566V4.73456z"/>
	<path d="M25.30469,6.01825c0,2.14648-1.48682,3.08203-2.89014,3.08203c-1.57129,0-2.78271-1.15137-2.78271-2.98633
		c0-1.94287,1.27148-3.08203,2.87842-3.08203C24.17773,3.03192,25.30469,4.24286,25.30469,6.01825z M20.69922,6.07782
		c0,1.27148,0.73193,2.23096,1.76318,2.23096c1.00732,0,1.76318-0.94727,1.76318-2.25488c0-0.9834-0.4917-2.23047-1.73926-2.23047
		C21.23926,3.82342,20.69922,4.97479,20.69922,6.07782z"/>
	<path d="M27.91113,1.49676v1.66699h1.51172v0.80322h-1.51172v3.13037c0,0.71973,0.2041,1.12744,0.79199,1.12744
		c0.27539,0,0.47949-0.03613,0.61133-0.07178l0.04785,0.7915c-0.20313,0.08398-0.52734,0.14404-0.93555,0.14404
		c-0.49121,0-0.88672-0.15625-1.13965-0.44385c-0.2998-0.31201-0.40723-0.82764-0.40723-1.51123v-3.1665h-0.8999V3.16376h0.8999
		v-1.3916L27.91113,1.49676z"/>
	<path d="M31.12793,6.25799c0.02441,1.42725,0.93555,2.01465,1.99121,2.01465c0.75586,0,1.21094-0.13184,1.60742-0.2998
		l0.17969,0.75586c-0.37207,0.16797-1.00781,0.35986-1.93066,0.35986c-1.78711,0-2.85449-1.17578-2.85449-2.92676
		s1.03125-3.12988,2.72266-3.12988c1.89453,0,2.39844,1.66699,2.39844,2.73438c0,0.21582-0.02441,0.38379-0.03613,0.4917H31.12793z
		 M34.22266,5.50214c0.01172-0.67139-0.27637-1.71484-1.46289-1.71484c-1.06738,0-1.53516,0.9834-1.61914,1.71484H34.22266z"/>
	<path d="M36.4082,7.88885c0.31152,0.2041,0.86328,0.41992,1.3916,0.41992c0.76758,0,1.12695-0.38379,1.12695-0.86328
		c0-0.50391-0.2998-0.77979-1.0791-1.06787c-1.04395-0.37158-1.53516-0.94727-1.53516-1.64307
		c0-0.93506,0.75586-1.70264,2.00293-1.70264c0.58789,0,1.10352,0.16748,1.42676,0.35938l-0.26367,0.76758
		c-0.22754-0.14355-0.64746-0.33545-1.1875-0.33545c-0.62305,0-0.9707,0.35986-0.9707,0.7915
		c0,0.47949,0.34766,0.69531,1.10254,0.9834c1.00781,0.38379,1.52344,0.8877,1.52344,1.75098
		c0,1.01953-0.79102,1.73926-2.1709,1.73926c-0.63574,0-1.22266-0.15625-1.63086-0.396L36.4082,7.88885z"/>
</g>
<rect x="12.92966" y="1.45838" width="27.31536" height="7.7374"/>
<g>
</g>
<g>
</g>
<g>
</g>
<g>
</g>
<g>
</g>
</svg>
