<?xml version="1.0" encoding="utf-8"?>
<!-- Generator: Adobe Illustrator 23.0.1, SVG Export Plug-In . SVG Version: 6.00 Build 0)  -->
<svg version="1.1" id="Layer_1" xmlns="http://www.w3.org/2000/svg" xmlns:xlink="http://www.w3.org/1999/xlink" x="0px" y="0px"
	 viewBox="0 0 52.70575 19.63658" style="enable-background:new 0 0 52.70575 19.63658;" xml:space="preserve">
<g>
	<path d="M10.65625,8.34491c0-0.44385,0.2998-0.75586,0.71973-0.75586s0.70752,0.31201,0.70752,0.75586
		c0,0.43164-0.27588,0.75537-0.71973,0.75537C10.94434,9.10028,10.65625,8.77655,10.65625,8.34491z"/>
	<path d="M13.39209,4.73456c0-0.59961-0.01172-1.09131-0.04785-1.5708h0.93555l0.05957,0.95947h0.02441
		c0.2876-0.55176,0.95947-1.09131,1.91895-1.09131c0.80322,0,2.05078,0.47949,2.05078,2.47022v3.46631h-1.05566V5.62225
		c0-0.93555-0.34766-1.71484-1.34326-1.71484c-0.69531,0-1.23535,0.4917-1.41504,1.0791
		c-0.04785,0.13184-0.07178,0.31201-0.07178,0.4917v3.49023h-1.05566V4.73456z"/>
	<path d="M25.30469,6.01825c0,2.14648-1.48682,3.08203-2.89014,3.08203c-1.57129,0-2.78271-1.15137-2.78271-2.98633
		c0-1.94287,1.27148-3.08203,2.87842-3.08203C24.17773,3.03192,25.30469,4.24286,25.30469,6.01825z M20.69922,6.07782
		c0,1.27148,0.73193,2.23096,1.76318,2.23096c1.00732,0,1.76318-0.94727,1.76318-2.25488c0-0.9834-0.4917-2.23047-1.73926-2.23047
		C21.23926,3.82342,20.69922,4.97479,20.69922,6.07782z"/>
	<path d="M27.91113,1.49676v1.66699h1.51172v0.80322h-1.51172v3.13037c0,0.71973,0.2041,1.12744,0.79199,1.12744
		c0.27539,0,0.47949-0.03613,0.61133-0.07178l0.04785,0.7915c-0.20313,0.08398-0.52734,0.14404-0.93555,0.14404
		c-0.49121,0-0.88672-0.15625-1.13965-0.44385c-0.2998-0.31201-0.40723-0.82764-0.40723-1.51123v-3.1665h-0.8999V3.16376h0.8999
		v-1.3916L27.91113,1.49676z"/>
	<path d="M31.12793,6.25799c0.02441,1.42725,0.93555,2.01465,1.99121,2.01465c0.75586,0,1.21094-0.13184,1.60742-0.2998
		l0.17969,0.75586c-0.37207,0.16797-1.00781,0.35986-1.93066,0.35986c-1.78711,0-2.85449-1.17578-2.85449-2.92676
		s1.03125-3.12988,2.72266-3.12988c1.89453,0,2.39844,1.66699,2.39844,2.73438c0,0.21582-0.02441,0.38379-0.03613,0.4917H31.12793z
		 M34.22266,5.50214c0.01172-0.67139-0.27637-1.71484-1.46289-1.71484c-1.06738,0-1.53516,0.9834-1.61914,1.71484H34.22266z"/>
	<path d="M36.4082,7.88885c0.31152,0.2041,0.86328,0.41992,1.3916,0.41992c0.76758,0,1.12695-0.38379,1.12695-0.86328
		c0-0.50391-0.2998-0.77979-1.0791-1.06787c-1.04395-0.37158-1.53516-0.94727-1.53516-1.64307
		c0-0.93506,0.75586-1.70264,2.00293-1.70264c0.58789,0,1.10352,0.16748,1.42676,0.35938l-0.26367,0.76758
		c-0.22754-0.14355-0.64746-0.33545-1.1875-0.33545c-0.62305,0-0.9707,0.35986-0.9707,0.7915
		c0,0.47949,0.34766,0.69531,1.10254,0.9834c1.00781,0.38379,1.52344,0.8877,1.52344,1.75098
		c0,1.01953-0.79102,1.73926-2.1709,1.73926c-0.63574,0-1.22266-0.15625-1.63086-0.396L36.4082,7.88885z"/>
</g>
<g>
	<path d="M5.30273,12.38348v0.8335h0.75586v0.40186H5.30273v1.56494c0,0.35986,0.10205,0.56396,0.396,0.56396
		c0.1377,0,0.23975-0.01807,0.30566-0.03613l0.02393,0.39551c-0.10156,0.04199-0.26367,0.07227-0.46777,0.07227
		c-0.24561,0-0.44336-0.07813-0.56934-0.22217c-0.1499-0.15576-0.2041-0.41357-0.2041-0.75537v-1.58301H4.3374v-0.40186h0.44971
		v-0.6958L5.30273,12.38348z"/>
	<path d="M6.65332,11.86151h0.52734v1.81104h0.01221c0.08398-0.1499,0.21582-0.28174,0.37793-0.37158
		c0.15576-0.08984,0.3418-0.1499,0.53955-0.1499c0.38965,0,1.01318,0.23975,1.01318,1.24121v1.72705H8.59619v-1.66699
		c0-0.46777-0.17383-0.86377-0.67188-0.86377c-0.3418,0-0.61182,0.24023-0.70752,0.52783
		c-0.02979,0.07178-0.03613,0.1499-0.03613,0.25195v1.75098H6.65332V11.86151z"/>
	<path d="M10.27686,14.76385c0.01221,0.71387,0.46777,1.00781,0.99561,1.00781c0.37793,0,0.60547-0.06592,0.80371-0.1499
		l0.08984,0.37744c-0.18604,0.08398-0.50391,0.18017-0.96533,0.18017c-0.89355,0-1.42725-0.58789-1.42725-1.46338
		s0.51563-1.56494,1.36133-1.56494c0.94727,0,1.19922,0.8335,1.19922,1.36719c0,0.10791-0.01221,0.19189-0.01807,0.24561H10.27686z
		 M11.82422,14.38641c0.00586-0.33594-0.13818-0.85742-0.73145-0.85742c-0.53369,0-0.76758,0.4917-0.80957,0.85742H11.82422z"/>
	<path d="M14.38037,14.30243v0.38965h-1.48145v-0.38965H14.38037z"/>
	<path d="M17.61377,11.86151v3.5083c0,0.25781,0.00586,0.55176,0.02393,0.74951h-0.47363l-0.02393-0.50391h-0.01221
		c-0.16162,0.32422-0.51563,0.56982-0.98926,0.56982c-0.70166,0-1.24121-0.59375-1.24121-1.4751
		c-0.00635-0.96533,0.59375-1.55908,1.30127-1.55908c0.44385,0,0.74365,0.20996,0.87549,0.44385h0.01172v-1.7334H17.61377z
		 M17.08594,14.39813c0-0.06592-0.00586-0.15576-0.02393-0.22168c-0.07764-0.33594-0.36572-0.61182-0.76172-0.61182
		c-0.54541,0-0.86914,0.47998-0.86914,1.12158c0,0.5874,0.2876,1.07324,0.85742,1.07324c0.354,0,0.67773-0.23389,0.77344-0.62939
		c0.01807-0.07227,0.02393-0.14404,0.02393-0.22803V14.39813z"/>
	<path d="M19.07861,12.40155c0.00586,0.17969-0.12598,0.32373-0.33594,0.32373c-0.18555,0-0.31787-0.14404-0.31787-0.32373
		c0-0.18604,0.13818-0.33008,0.33008-0.33008C18.95264,12.07147,19.07861,12.21551,19.07861,12.40155z M18.49121,16.11932v-2.90234
		h0.52734v2.90234H18.49121z"/>
	<path d="M21.50195,16.11932l-0.04199-0.36572h-0.01807c-0.16211,0.22803-0.47363,0.43164-0.8877,0.43164
		c-0.5874,0-0.88721-0.41357-0.88721-0.8335c0-0.70166,0.62354-1.08545,1.74512-1.07959v-0.05957
		c0-0.24023-0.06592-0.67188-0.65967-0.67188c-0.27002,0-0.55176,0.08398-0.75586,0.21582l-0.11963-0.34766
		c0.23975-0.15576,0.5874-0.25781,0.95313-0.25781c0.8877,0,1.10352,0.60547,1.10352,1.18701v1.08545
		c0,0.25195,0.01221,0.49805,0.04785,0.6958H21.50195z M21.42383,14.63837c-0.57568-0.01221-1.229,0.08984-1.229,0.65332
		c0,0.3418,0.22754,0.50391,0.49756,0.50391c0.37793,0,0.61768-0.23975,0.70166-0.48584
		c0.01807-0.0542,0.02979-0.11377,0.02979-0.16797V14.63837z"/>
	<path d="M22.78662,11.86151h0.52832v4.25781h-0.52832V11.86151z"/>
	<path d="M26.83008,14.64423c0,1.07324-0.74414,1.54101-1.4458,1.54101c-0.78516,0-1.3916-0.57568-1.3916-1.49316
		c0-0.97168,0.63574-1.54102,1.43945-1.54102C26.2666,13.15106,26.83008,13.75653,26.83008,14.64423z M24.52686,14.67401
		c0,0.63574,0.36523,1.11572,0.88184,1.11572c0.50293,0,0.88135-0.47412,0.88135-1.12744c0-0.4917-0.24609-1.11572-0.86963-1.11572
		C24.79639,13.54657,24.52686,14.12225,24.52686,14.67401z"/>
	<path d="M29.99805,13.21698c-0.01172,0.20996-0.02441,0.44385-0.02441,0.79736v1.68506c0,0.66601-0.13184,1.07373-0.41309,1.32519
		c-0.28223,0.26416-0.69043,0.34814-1.05566,0.34814c-0.34766,0-0.73145-0.08398-0.96582-0.23975l0.13184-0.40186
		c0.19238,0.11963,0.49219,0.22754,0.85156,0.22754c0.54004,0,0.93555-0.28174,0.93555-1.01318v-0.32373h-0.01172
		c-0.16211,0.26953-0.47363,0.48535-0.92383,0.48535c-0.71973,0-1.23535-0.61133-1.23535-1.41504
		c0-0.9834,0.6416-1.54102,1.30762-1.54102c0.50391,0,0.7793,0.26367,0.90527,0.50342h0.0127l0.02344-0.4375H29.99805z
		 M29.45215,14.36249c0-0.09033-0.00586-0.16797-0.03027-0.24023c-0.0957-0.30566-0.35352-0.55762-0.7373-0.55762
		c-0.50391,0-0.86328,0.42578-0.86328,1.09766c0,0.56934,0.28809,1.04346,0.85742,1.04346c0.32422,0,0.61719-0.2041,0.73145-0.54004
		c0.03027-0.08984,0.04199-0.19189,0.04199-0.28174V14.36249z"/>
	<path d="M33.2793,15.32782c0,0.2998,0.00586,0.56348,0.02441,0.7915h-0.46777l-0.03027-0.47363h-0.01172
		c-0.1377,0.23389-0.44434,0.53955-0.95996,0.53955c-0.45508,0-1.00098-0.25195-1.00098-1.27148v-1.69678h0.52734v1.60693
		c0,0.55176,0.16797,0.92383,0.64746,0.92383c0.35449,0,0.59961-0.24609,0.69629-0.47998
		c0.0293-0.07813,0.04785-0.17383,0.04785-0.27002v-1.78076h0.52734V15.32782z"/>
	<path d="M34.45117,14.76385c0.01172,0.71387,0.46777,1.00781,0.99512,1.00781c0.37793,0,0.60645-0.06592,0.80371-0.1499
		l0.08984,0.37744c-0.18555,0.08398-0.50293,0.18017-0.96484,0.18017c-0.89355,0-1.42773-0.58789-1.42773-1.46338
		s0.51563-1.56494,1.36133-1.56494c0.94727,0,1.19922,0.8335,1.19922,1.36719c0,0.10791-0.01172,0.19189-0.01758,0.24561H34.45117z
		 M35.99805,14.38641c0.00684-0.33594-0.1377-0.85742-0.73145-0.85742c-0.5332,0-0.76758,0.4917-0.80957,0.85742H35.99805z"/>
	<path d="M36.96484,15.80731c0-0.22168,0.15039-0.37744,0.36035-0.37744s0.35352,0.15576,0.35352,0.37744
		c0,0.21582-0.1377,0.37793-0.35938,0.37793C37.10938,16.18524,36.96484,16.02313,36.96484,15.80731z"/>
	<path d="M40.40234,16.01141c-0.1377,0.07178-0.44434,0.16797-0.83398,0.16797c-0.875,0-1.44531-0.59375-1.44531-1.48144
		c0-0.89355,0.6123-1.54102,1.55957-1.54102c0.31152,0,0.58789,0.07813,0.73145,0.1499l-0.12012,0.40771
		c-0.12598-0.07178-0.32324-0.1377-0.61133-0.1377c-0.66602,0-1.02539,0.4917-1.02539,1.09717
		c0,0.67188,0.43164,1.08545,1.00684,1.08545c0.30078,0,0.49805-0.07813,0.64844-0.14404L40.40234,16.01141z"/>
	<path d="M43.6123,14.64423c0,1.07324-0.74414,1.54101-1.44531,1.54101c-0.78516,0-1.3916-0.57568-1.3916-1.49316
		c0-0.97168,0.63574-1.54102,1.43945-1.54102C43.04883,13.15106,43.6123,13.75653,43.6123,14.64423z M41.30957,14.67401
		c0,0.63574,0.36523,1.11572,0.88184,1.11572c0.50293,0,0.88086-0.47412,0.88086-1.12744c0-0.4917-0.24609-1.11572-0.86914-1.11572
		C41.5791,13.54657,41.30957,14.12225,41.30957,14.67401z"/>
	<path d="M44.2793,14.00262c0-0.2998-0.00586-0.5459-0.02344-0.78564h0.46191l0.02344,0.46777h0.01855
		c0.16113-0.27588,0.43164-0.53369,0.91113-0.53369c0.39551,0,0.69531,0.23975,0.82129,0.58154h0.01172
		c0.09082-0.16211,0.2041-0.2876,0.32422-0.37793c0.17383-0.13184,0.36621-0.20361,0.6416-0.20361
		c0.38379,0,0.95313,0.25195,0.95313,1.25928v1.70898h-0.51563v-1.64307c0-0.55762-0.20313-0.89355-0.62891-0.89355
		c-0.2998,0-0.53418,0.22168-0.62402,0.47998c-0.02441,0.07178-0.04199,0.16748-0.04199,0.26367v1.79297h-0.51563v-1.73926
		c0-0.46143-0.2041-0.79736-0.60547-0.79736c-0.33008,0-0.57031,0.26367-0.6543,0.52783
		c-0.0293,0.07764-0.04199,0.16797-0.04199,0.25781v1.75098H44.2793V14.00262z"/>
</g>
<g>
</g>
<g>
</g>
<g>
</g>
<g>
</g>
<g>
</g>
</svg>
